<?xml version="1.0" encoding="utf-8"?>
<!-- Generator: Adobe Illustrator 26.0.1, SVG Export Plug-In . SVG Version: 6.00 Build 0)  -->
<svg version="1.1" id="Layer_1" xmlns="http://www.w3.org/2000/svg" xmlns:xlink="http://www.w3.org/1999/xlink" x="0px" y="0px"
	 viewBox="0 0 150 50" style="enable-background:new 0 0 150 50;" xml:space="preserve">
<style type="text/css">
	.st0{fill-rule:evenodd;clip-rule:evenodd;fill:#DA4A4F;}
	.st1{fill-rule:evenodd;clip-rule:evenodd;fill:#FFFFFF;}
	.st2{fill-rule:evenodd;clip-rule:evenodd;fill:#6E6B69;}
</style>
<g>
	<path class="st0" d="M28.43,1.43c4.9,0,8.88,3.84,8.88,8.57c0,4.73-3.98,8.57-8.88,8.57c-4.9,0-8.88-3.84-8.88-8.57
		C19.55,5.27,23.52,1.43,28.43,1.43z"/>
	<path class="st1" d="M22.68,7.71c0.64-1.65,1.76-2.83,3.36-3.54c1.43-0.63,2.89-0.72,4.36-0.27c1.47,0.45,2.64,1.32,3.5,2.6
		c0.24,0.31,0.43,0.63,0.58,0.97c0.13,0.3,0.23,0.62,0.29,0.95l-9.15,4.05c0.52,0.78,1.21,1.28,2.06,1.5
		c0.86,0.22,1.72,0.14,2.58-0.24c1.32-0.58,2.16-1.52,2.53-2.82l2.45-0.39c-0.05,1.12-0.46,2.18-1.23,3.18
		c-0.77,1-1.69,1.74-2.78,2.22c-1.65,0.73-3.29,0.77-4.92,0.12c-1.63-0.65-2.8-1.78-3.52-3.4C22.08,11.01,22.04,9.37,22.68,7.71
		L22.68,7.71z M24.8,10.58l6.75-2.98c-0.48-0.7-1.14-1.17-1.98-1.42c-0.84-0.25-1.7-0.19-2.57,0.2c-0.87,0.39-1.5,0.98-1.89,1.77
		C24.72,8.94,24.62,9.75,24.8,10.58z"/>
	<path class="st2" d="M38.92,5.67c1.21-1.25,2.67-1.88,4.39-1.88c1.68,0,3.01,0.62,3.99,1.88V4h2.7v12.45h-2.7v-1.67
		c-0.99,1.24-2.32,1.86-3.99,1.86c-1.71,0-3.17-0.63-4.38-1.89c-1.22-1.26-1.82-2.77-1.82-4.52C37.11,8.44,37.72,6.92,38.92,5.67
		L38.92,5.67z M39.63,10.23c0,1.1,0.38,2.03,1.14,2.81c0.76,0.78,1.69,1.16,2.78,1.16c1.08,0,2.01-0.39,2.78-1.17
		c0.78-0.78,1.16-1.72,1.16-2.8c0-1.08-0.39-2.02-1.16-2.81c-0.77-0.79-1.7-1.19-2.78-1.19c-1.1,0-2.02,0.39-2.78,1.18
		C40.01,8.19,39.63,9.13,39.63,10.23z"/>
	<path class="st2" d="M52.41,4h2.7v2.05c0.39-0.78,0.93-1.34,1.61-1.68c0.68-0.34,1.38-0.5,2.1-0.5c0.35,0,0.71,0.03,1.08,0.09v2.89
		c-0.49-0.16-0.95-0.24-1.39-0.24c-0.71,0-1.45,0.26-2.23,0.78c-0.78,0.52-1.18,1.43-1.18,2.75v6.32h-2.7V4z"/>
	<path class="st2" d="M61.43,6.35V4h2.35V1.02l2.65-0.77V4h3.83v2.35h-3.83v6.06c0,0.77,0.22,1.25,0.67,1.43
		c0.45,0.19,0.85,0.28,1.21,0.28c0.56,0,1.25-0.12,2.05-0.38v2.61c-0.85,0.24-1.62,0.35-2.33,0.35c-0.92,0-1.86-0.27-2.82-0.81
		c-0.96-0.54-1.43-1.7-1.43-3.47V6.35H61.43z"/>
	<path class="st2" d="M72.67,0.01h2.7v5.64c0.97-1.24,2.27-1.86,3.9-1.86c1.42,0,2.65,0.46,3.68,1.38c1.02,0.92,1.54,2.13,1.54,3.65
		v7.63h-2.7V9.55c0-0.99-0.3-1.77-0.89-2.36C80.3,6.6,79.58,6.3,78.74,6.3c-0.99,0-1.79,0.36-2.42,1.07
		c-0.63,0.71-0.94,1.6-0.94,2.67v6.41h-2.7V0.01z"/>
	<path class="st2" d="M49.5,19.2h2.7v2.04c0.39-0.78,0.93-1.34,1.61-1.68c0.68-0.34,1.38-0.5,2.1-0.5c0.34,0,0.71,0.03,1.08,0.09
		v2.89c-0.49-0.16-0.95-0.24-1.39-0.24c-0.71,0-1.45,0.26-2.23,0.78c-0.78,0.52-1.18,1.43-1.18,2.75v6.32h-2.7V19.2z"/>
	<path class="st2" d="M58.97,15.21h2.7v5.64c0.97-1.24,2.27-1.86,3.9-1.86c1.42,0,2.65,0.46,3.68,1.37
		c1.02,0.92,1.54,2.13,1.54,3.65v7.64h-2.7v-6.91c0-0.99-0.3-1.77-0.89-2.36c-0.6-0.59-1.32-0.88-2.16-0.88
		c-0.99,0-1.79,0.36-2.42,1.07c-0.63,0.71-0.94,1.6-0.94,2.67v6.41h-2.7V15.21z"/>
	<polygon class="st2" points="72.29,19.2 75.18,19.2 78.87,28.41 82.39,19.2 85.28,19.2 78.31,36.59 75.49,36.59 77.48,31.58 	"/>
	<path class="st2" d="M86.44,21.55V19.2h2.35v-2.98l2.65-0.77v3.76h3.83v2.35h-3.83v6.06c0,0.77,0.22,1.25,0.67,1.43
		c0.45,0.19,0.85,0.28,1.21,0.28c0.56,0,1.24-0.13,2.05-0.38v2.61c-0.85,0.24-1.62,0.35-2.33,0.35c-0.93,0-1.86-0.27-2.82-0.81
		c-0.95-0.54-1.43-1.7-1.43-3.47v-6.09H86.44z"/>
	<path class="st2" d="M97.5,15.21h2.7v5.64c0.97-1.24,2.27-1.86,3.9-1.86c1.43,0,2.65,0.46,3.68,1.37c1.02,0.92,1.54,2.13,1.54,3.65
		v7.64h-2.7v-6.91c0-0.99-0.3-1.77-0.89-2.36c-0.6-0.59-1.32-0.88-2.16-0.88c-0.99,0-1.79,0.36-2.42,1.07
		c-0.63,0.71-0.94,1.6-0.94,2.67v6.41h-2.7V15.21z"/>
	<path class="st2" d="M111.83,19.2h2.7v1.6c0.89-1.21,2.05-1.81,3.45-1.81c0.81,0,1.57,0.2,2.27,0.6c0.7,0.4,1.25,0.98,1.66,1.75
		c0.45-0.74,1.06-1.31,1.82-1.73c0.76-0.41,1.55-0.62,2.38-0.62c1.27,0,2.37,0.45,3.29,1.35c0.92,0.9,1.39,2.13,1.39,3.68v7.64h-2.7
		v-6.98c0-1-0.22-1.79-0.66-2.36c-0.44-0.57-1.06-0.86-1.86-0.86c-0.89,0-1.59,0.3-2.08,0.89c-0.49,0.6-0.77,1.35-0.83,2.26v7.05
		h-2.7v-6.98c0-1-0.22-1.79-0.66-2.36c-0.44-0.57-1.05-0.86-1.83-0.86c-0.97,0-1.7,0.34-2.2,1.01c-0.49,0.67-0.74,1.51-0.74,2.51
		v6.67h-2.7V19.2z"/>
	<polygon class="st2" points="4.11,43.08 4.11,44.92 6.11,44.92 6.11,45.5 4.11,45.5 4.11,47.39 6.34,47.39 6.34,47.98 3.4,47.98 
		3.4,42.49 6.34,42.49 6.34,43.08 	"/>
	<path class="st2" d="M9.57,44.26h-0.9v3.72H7.96v-3.72H7.4v-0.59h0.56v-0.31c0-0.48,0.12-0.83,0.37-1.06
		c0.25-0.22,0.65-0.33,1.2-0.33v0.6c-0.31,0-0.54,0.06-0.66,0.18c-0.13,0.12-0.19,0.33-0.19,0.61v0.31h0.9V44.26z"/>
	<path class="st2" d="M12.55,44.26h-0.9v3.72h-0.72v-3.72h-0.56v-0.59h0.56v-0.31c0-0.48,0.12-0.83,0.37-1.06
		c0.25-0.22,0.65-0.33,1.2-0.33v0.6c-0.31,0-0.54,0.06-0.66,0.18c-0.13,0.12-0.19,0.33-0.19,0.61v0.31h0.9V44.26z"/>
	<path class="st2" d="M14.49,47.98h-0.71v-4.31h0.71V47.98L14.49,47.98z M13.8,42.83c-0.09-0.09-0.14-0.21-0.14-0.35
		c0-0.14,0.05-0.25,0.14-0.35C13.9,42.05,14.01,42,14.15,42c0.13,0,0.24,0.05,0.33,0.14c0.09,0.09,0.14,0.21,0.14,0.35
		c0,0.14-0.05,0.25-0.14,0.35c-0.09,0.09-0.2,0.14-0.33,0.14C14.01,42.97,13.9,42.93,13.8,42.83z"/>
	<path class="st2" d="M16.11,44.65c0.18-0.33,0.43-0.59,0.74-0.77c0.32-0.18,0.68-0.28,1.09-0.28c0.53,0,0.97,0.13,1.31,0.39
		c0.34,0.26,0.57,0.61,0.68,1.07h-0.77c-0.07-0.26-0.22-0.47-0.43-0.62c-0.21-0.15-0.48-0.23-0.79-0.23c-0.41,0-0.74,0.14-0.99,0.42
		c-0.25,0.28-0.38,0.68-0.38,1.19c0,0.52,0.13,0.92,0.38,1.2c0.25,0.28,0.58,0.42,0.99,0.42c0.31,0,0.58-0.07,0.79-0.22
		c0.21-0.15,0.35-0.36,0.43-0.63h0.77c-0.12,0.44-0.35,0.79-0.69,1.06c-0.35,0.26-0.78,0.4-1.3,0.4c-0.41,0-0.77-0.09-1.09-0.27
		c-0.32-0.18-0.56-0.44-0.74-0.78c-0.18-0.34-0.27-0.73-0.27-1.18C15.84,45.37,15.93,44.98,16.11,44.65z"/>
	<path class="st2" d="M24.45,44.97c-0.13-0.24-0.31-0.43-0.53-0.55c-0.22-0.13-0.47-0.19-0.73-0.19c-0.27,0-0.51,0.06-0.73,0.19
		c-0.22,0.13-0.4,0.31-0.53,0.55c-0.13,0.24-0.2,0.52-0.2,0.85c0,0.33,0.07,0.62,0.2,0.86c0.13,0.24,0.31,0.43,0.53,0.56
		c0.22,0.13,0.46,0.19,0.73,0.19c0.27,0,0.51-0.06,0.73-0.19c0.22-0.13,0.4-0.31,0.53-0.56c0.13-0.24,0.2-0.53,0.2-0.85
		C24.65,45.49,24.58,45.21,24.45,44.97L24.45,44.97z M21.27,44.65c0.18-0.33,0.42-0.59,0.73-0.77c0.31-0.18,0.66-0.27,1.04-0.27
		c0.38,0,0.7,0.08,0.98,0.24c0.28,0.16,0.48,0.37,0.62,0.61v-0.79h0.72v4.31h-0.72v-0.8c-0.14,0.25-0.35,0.46-0.63,0.62
		c-0.28,0.17-0.61,0.25-0.98,0.25c-0.38,0-0.73-0.09-1.04-0.28c-0.31-0.19-0.55-0.45-0.73-0.79C21.09,46.63,21,46.25,21,45.81
		C21,45.37,21.09,44.99,21.27,44.65z"/>
	<path class="st2" d="M26.97,44.65c0.18-0.33,0.43-0.59,0.74-0.77c0.32-0.18,0.68-0.28,1.09-0.28c0.53,0,0.97,0.13,1.31,0.39
		c0.34,0.26,0.57,0.61,0.68,1.07h-0.77c-0.07-0.26-0.22-0.47-0.43-0.62c-0.21-0.15-0.48-0.23-0.79-0.23c-0.41,0-0.74,0.14-0.99,0.42
		c-0.25,0.28-0.38,0.68-0.38,1.19c0,0.52,0.13,0.92,0.38,1.2c0.25,0.28,0.58,0.42,0.99,0.42c0.31,0,0.58-0.07,0.79-0.22
		c0.21-0.15,0.35-0.36,0.43-0.63h0.77c-0.12,0.44-0.35,0.79-0.69,1.06c-0.35,0.26-0.78,0.4-1.3,0.4c-0.41,0-0.77-0.09-1.09-0.27
		c-0.32-0.18-0.56-0.44-0.74-0.78c-0.18-0.34-0.27-0.73-0.27-1.18C26.71,45.37,26.8,44.98,26.97,44.65z"/>
	<polygon class="st2" points="35.85,43.67 33.25,50.01 32.51,50.01 33.36,47.93 31.63,43.67 32.42,43.67 33.77,47.16 35.11,43.67 	
		"/>
	<path class="st2" d="M36.84,47.89c-0.09-0.09-0.14-0.21-0.14-0.35c0-0.14,0.05-0.25,0.14-0.35c0.09-0.09,0.21-0.14,0.35-0.14
		c0.13,0,0.24,0.05,0.33,0.14c0.09,0.09,0.14,0.21,0.14,0.35c0,0.14-0.05,0.25-0.14,0.35c-0.09,0.09-0.2,0.14-0.33,0.14
		C37.05,48.03,36.93,47.98,36.84,47.89z"/>
	<rect x="41.49" y="42.5" class="st2" width="0.71" height="5.48"/>
	<path class="st2" d="M47.19,44.07c0.32,0.32,0.49,0.77,0.49,1.37v2.54h-0.71v-2.44c0-0.43-0.11-0.76-0.32-0.99
		c-0.21-0.23-0.51-0.34-0.88-0.34c-0.38,0-0.68,0.12-0.9,0.35c-0.22,0.24-0.33,0.58-0.33,1.03v2.38h-0.72v-4.31h0.72v0.61
		c0.14-0.22,0.33-0.39,0.58-0.51c0.24-0.12,0.51-0.18,0.81-0.18C46.44,43.6,46.86,43.75,47.19,44.07z"/>
	<path class="st2" d="M49.24,44.65c0.18-0.33,0.43-0.59,0.74-0.77c0.32-0.18,0.68-0.28,1.09-0.28c0.53,0,0.97,0.13,1.31,0.39
		c0.34,0.26,0.57,0.61,0.68,1.07h-0.77c-0.07-0.26-0.22-0.47-0.43-0.62c-0.21-0.15-0.48-0.23-0.79-0.23c-0.41,0-0.74,0.14-0.99,0.42
		c-0.25,0.28-0.38,0.68-0.38,1.19c0,0.52,0.13,0.92,0.38,1.2c0.25,0.28,0.58,0.42,0.99,0.42c0.31,0,0.58-0.07,0.79-0.22
		c0.21-0.15,0.35-0.36,0.43-0.63h0.77c-0.12,0.44-0.35,0.79-0.69,1.06c-0.35,0.26-0.78,0.4-1.3,0.4c-0.41,0-0.77-0.09-1.09-0.27
		c-0.32-0.18-0.56-0.44-0.74-0.78c-0.18-0.34-0.27-0.73-0.27-1.18C48.97,45.37,49.06,44.98,49.24,44.65z"/>
	<rect x="54.4" y="42.17" class="st2" width="0.72" height="5.82"/>
	<path class="st2" d="M60.55,43.67v4.31h-0.72v-0.64c-0.14,0.22-0.33,0.39-0.57,0.52c-0.24,0.12-0.51,0.18-0.81,0.18
		c-0.34,0-0.64-0.07-0.9-0.21c-0.27-0.14-0.48-0.35-0.63-0.62c-0.15-0.28-0.23-0.62-0.23-1.01v-2.52h0.71v2.43
		c0,0.42,0.11,0.75,0.32,0.98c0.21,0.23,0.51,0.34,0.88,0.34c0.38,0,0.68-0.12,0.9-0.35c0.22-0.24,0.33-0.58,0.33-1.03v-2.37H60.55z
		"/>
	<path class="st2" d="M62.79,47.88c-0.26-0.11-0.47-0.27-0.62-0.47c-0.15-0.2-0.24-0.43-0.25-0.7h0.74c0.02,0.22,0.12,0.39,0.3,0.53
		c0.18,0.14,0.42,0.2,0.71,0.2c0.27,0,0.49-0.06,0.64-0.18c0.16-0.12,0.24-0.27,0.24-0.46c0-0.19-0.08-0.33-0.25-0.42
		c-0.17-0.09-0.43-0.18-0.78-0.27c-0.32-0.08-0.58-0.17-0.78-0.26c-0.2-0.09-0.37-0.21-0.52-0.39C62.07,45.31,62,45.08,62,44.81
		c0-0.22,0.07-0.42,0.2-0.61c0.13-0.18,0.32-0.33,0.56-0.44c0.24-0.11,0.52-0.16,0.83-0.16c0.48,0,0.86,0.12,1.16,0.36
		c0.29,0.24,0.45,0.57,0.47,0.99h-0.72c-0.02-0.23-0.11-0.41-0.27-0.54c-0.17-0.14-0.39-0.2-0.66-0.2c-0.26,0-0.46,0.05-0.61,0.17
		c-0.15,0.11-0.23,0.25-0.23,0.43c0,0.14,0.05,0.26,0.14,0.35c0.09,0.09,0.21,0.16,0.35,0.22c0.14,0.05,0.33,0.12,0.58,0.18
		c0.31,0.08,0.56,0.17,0.75,0.25c0.19,0.08,0.36,0.2,0.5,0.37c0.14,0.16,0.21,0.37,0.22,0.64c0,0.24-0.07,0.45-0.2,0.64
		c-0.13,0.19-0.32,0.34-0.55,0.44c-0.24,0.11-0.51,0.16-0.82,0.16C63.34,48.05,63.05,47.99,62.79,47.88z"/>
	<path class="st2" d="M67.36,47.98h-0.71v-4.31h0.71V47.98L67.36,47.98z M66.67,42.83c-0.09-0.09-0.14-0.21-0.14-0.35
		c0-0.14,0.05-0.25,0.14-0.35c0.09-0.09,0.21-0.14,0.35-0.14c0.13,0,0.24,0.05,0.33,0.14c0.09,0.09,0.14,0.21,0.14,0.35
		c0,0.14-0.05,0.25-0.14,0.35c-0.09,0.09-0.2,0.14-0.33,0.14C66.88,42.97,66.76,42.93,66.67,42.83z"/>
	<polygon class="st2" points="70.57,47.32 71.91,43.67 72.67,43.67 70.98,47.98 70.15,47.98 68.46,43.67 69.23,43.67 	"/>
	<path class="st2" d="M74.49,47.98h-0.71v-4.31h0.71V47.98L74.49,47.98z M73.8,42.83c-0.09-0.09-0.14-0.21-0.14-0.35
		c0-0.14,0.05-0.25,0.14-0.35c0.09-0.09,0.21-0.14,0.35-0.14c0.13,0,0.24,0.05,0.33,0.14c0.09,0.09,0.14,0.21,0.14,0.35
		c0,0.14-0.05,0.25-0.14,0.35c-0.09,0.09-0.2,0.14-0.33,0.14C74.01,42.97,73.89,42.93,73.8,42.83z"/>
	<path class="st2" d="M76.97,44.26v2.54c0,0.21,0.04,0.36,0.13,0.44c0.09,0.09,0.24,0.13,0.46,0.13h0.53v0.61h-0.64
		c-0.4,0-0.7-0.09-0.9-0.27c-0.2-0.18-0.3-0.48-0.3-0.9v-2.54H75.7v-0.59h0.56v-1.08h0.72v1.08h1.12v0.59H76.97z"/>
	<polygon class="st2" points="83.06,43.67 80.47,50.01 79.73,50.01 80.58,47.93 78.84,43.67 79.64,43.67 80.99,47.16 82.32,43.67 	
		"/>
	<path class="st2" d="M84.05,47.89c-0.09-0.09-0.14-0.21-0.14-0.35c0-0.14,0.05-0.25,0.14-0.35c0.09-0.09,0.21-0.14,0.35-0.14
		c0.13,0,0.24,0.05,0.33,0.14c0.09,0.09,0.14,0.21,0.14,0.35c0,0.14-0.05,0.25-0.14,0.35c-0.09,0.09-0.2,0.14-0.33,0.14
		C84.26,48.03,84.15,47.98,84.05,47.89z"/>
	<path class="st2" d="M89.47,47.84c-0.29-0.13-0.51-0.31-0.67-0.53c-0.16-0.23-0.25-0.49-0.25-0.79h0.76
		c0.03,0.26,0.13,0.47,0.32,0.65c0.19,0.18,0.46,0.26,0.81,0.26c0.34,0,0.61-0.09,0.81-0.26c0.2-0.17,0.29-0.39,0.29-0.66
		c0-0.21-0.06-0.38-0.17-0.51c-0.12-0.13-0.26-0.23-0.43-0.3c-0.17-0.07-0.41-0.14-0.7-0.22c-0.36-0.09-0.65-0.19-0.87-0.28
		c-0.22-0.09-0.4-0.24-0.56-0.44c-0.15-0.2-0.23-0.47-0.23-0.81c0-0.3,0.08-0.56,0.23-0.79c0.15-0.23,0.37-0.41,0.64-0.53
		c0.27-0.13,0.59-0.19,0.95-0.19c0.51,0,0.93,0.13,1.26,0.39c0.33,0.26,0.51,0.6,0.55,1.02h-0.79c-0.03-0.21-0.14-0.39-0.33-0.55
		c-0.19-0.16-0.45-0.24-0.77-0.24c-0.3,0-0.54,0.08-0.73,0.23c-0.19,0.15-0.28,0.37-0.28,0.65c0,0.2,0.06,0.36,0.17,0.49
		c0.11,0.13,0.25,0.22,0.42,0.29c0.17,0.07,0.4,0.14,0.7,0.22c0.36,0.1,0.65,0.2,0.87,0.29c0.22,0.1,0.41,0.25,0.57,0.45
		c0.16,0.2,0.24,0.48,0.24,0.82c0,0.27-0.07,0.52-0.21,0.75c-0.14,0.24-0.35,0.43-0.63,0.57c-0.28,0.15-0.61,0.22-0.98,0.22
		C90.08,48.04,89.76,47.97,89.47,47.84z"/>
	<path class="st2" d="M97.53,43.67v4.31h-0.72v-0.64c-0.14,0.22-0.33,0.39-0.57,0.52c-0.24,0.12-0.51,0.18-0.81,0.18
		c-0.34,0-0.64-0.07-0.9-0.21c-0.27-0.14-0.48-0.35-0.63-0.62c-0.15-0.28-0.23-0.62-0.23-1.01v-2.52h0.71v2.43
		c0,0.42,0.11,0.75,0.32,0.98c0.21,0.23,0.51,0.34,0.88,0.34c0.38,0,0.68-0.12,0.9-0.35c0.22-0.24,0.33-0.58,0.33-1.03v-2.37H97.53z
		"/>
	<path class="st2" d="M99.77,47.88c-0.26-0.11-0.47-0.27-0.62-0.47c-0.15-0.2-0.24-0.43-0.25-0.7h0.74c0.02,0.22,0.12,0.39,0.3,0.53
		c0.18,0.14,0.42,0.2,0.71,0.2c0.27,0,0.49-0.06,0.64-0.18c0.16-0.12,0.24-0.27,0.24-0.46c0-0.19-0.08-0.33-0.25-0.42
		c-0.17-0.09-0.43-0.18-0.78-0.27c-0.32-0.08-0.58-0.17-0.78-0.26c-0.2-0.09-0.37-0.21-0.52-0.39c-0.14-0.17-0.22-0.39-0.22-0.67
		c0-0.22,0.07-0.42,0.2-0.61c0.13-0.18,0.32-0.33,0.56-0.44c0.24-0.11,0.52-0.16,0.83-0.16c0.48,0,0.86,0.12,1.15,0.36
		c0.29,0.24,0.45,0.57,0.47,0.99h-0.72c-0.02-0.23-0.11-0.41-0.27-0.54c-0.17-0.14-0.39-0.2-0.66-0.2c-0.26,0-0.46,0.05-0.61,0.17
		c-0.15,0.11-0.23,0.25-0.23,0.43c0,0.14,0.05,0.26,0.14,0.35c0.09,0.09,0.21,0.16,0.35,0.22c0.14,0.05,0.33,0.12,0.58,0.18
		c0.31,0.08,0.56,0.17,0.75,0.25c0.19,0.08,0.36,0.2,0.5,0.37c0.14,0.16,0.21,0.37,0.22,0.64c0,0.24-0.07,0.45-0.2,0.64
		c-0.13,0.19-0.32,0.34-0.55,0.44c-0.24,0.11-0.51,0.16-0.82,0.16C100.33,48.05,100.03,47.99,99.77,47.88z"/>
	<path class="st2" d="M104.5,44.26v2.54c0,0.21,0.04,0.36,0.13,0.44c0.09,0.09,0.24,0.13,0.46,0.13h0.53v0.61h-0.64
		c-0.4,0-0.7-0.09-0.9-0.27c-0.2-0.18-0.3-0.48-0.3-0.9v-2.54h-0.56v-0.59h0.56v-1.08h0.72v1.08h1.12v0.59H104.5z"/>
	<path class="st2" d="M110.07,44.97c-0.13-0.24-0.31-0.43-0.53-0.55c-0.22-0.13-0.47-0.19-0.74-0.19c-0.27,0-0.51,0.06-0.73,0.19
		c-0.22,0.13-0.4,0.31-0.53,0.55c-0.13,0.24-0.2,0.52-0.2,0.85c0,0.33,0.07,0.62,0.2,0.86c0.13,0.24,0.31,0.43,0.53,0.56
		c0.22,0.13,0.46,0.19,0.73,0.19c0.27,0,0.51-0.06,0.74-0.19c0.22-0.13,0.4-0.31,0.53-0.56c0.13-0.24,0.2-0.53,0.2-0.85
		C110.26,45.49,110.2,45.21,110.07,44.97L110.07,44.97z M106.88,44.65c0.18-0.33,0.42-0.59,0.74-0.77c0.31-0.18,0.66-0.27,1.04-0.27
		c0.38,0,0.7,0.08,0.98,0.24c0.28,0.16,0.48,0.37,0.62,0.61v-0.79h0.72v4.31h-0.72v-0.8c-0.14,0.25-0.35,0.46-0.63,0.62
		c-0.28,0.17-0.61,0.25-0.98,0.25c-0.38,0-0.73-0.09-1.04-0.28c-0.31-0.19-0.55-0.45-0.73-0.79c-0.18-0.34-0.27-0.73-0.27-1.16
		C106.61,45.37,106.7,44.99,106.88,44.65z"/>
	<path class="st2" d="M113.3,47.98h-0.72v-4.31h0.72V47.98L113.3,47.98z M112.61,42.83c-0.09-0.09-0.14-0.21-0.14-0.35
		c0-0.14,0.05-0.25,0.14-0.35c0.09-0.09,0.21-0.14,0.35-0.14c0.13,0,0.24,0.05,0.33,0.14c0.09,0.09,0.14,0.21,0.14,0.35
		c0,0.14-0.05,0.25-0.14,0.35c-0.09,0.09-0.2,0.14-0.33,0.14C112.82,42.97,112.71,42.93,112.61,42.83z"/>
	<path class="st2" d="M118.29,44.07c0.32,0.32,0.49,0.77,0.49,1.37v2.54h-0.71v-2.44c0-0.43-0.11-0.76-0.32-0.99
		c-0.21-0.23-0.51-0.34-0.88-0.34c-0.38,0-0.68,0.12-0.9,0.35c-0.22,0.24-0.33,0.58-0.33,1.03v2.38h-0.72v-4.31h0.72v0.61
		c0.14-0.22,0.33-0.39,0.58-0.51c0.24-0.12,0.51-0.18,0.81-0.18C117.54,43.6,117.96,43.75,118.29,44.07z"/>
	<path class="st2" d="M123.52,44.97c-0.13-0.24-0.31-0.43-0.53-0.55c-0.22-0.13-0.47-0.19-0.74-0.19c-0.27,0-0.51,0.06-0.73,0.19
		c-0.22,0.13-0.4,0.31-0.53,0.55c-0.13,0.24-0.2,0.52-0.2,0.85c0,0.33,0.07,0.62,0.2,0.86c0.13,0.24,0.31,0.43,0.53,0.56
		c0.22,0.13,0.46,0.19,0.73,0.19c0.27,0,0.51-0.06,0.74-0.19c0.22-0.13,0.4-0.31,0.53-0.56c0.13-0.24,0.2-0.53,0.2-0.85
		C123.72,45.49,123.65,45.21,123.52,44.97L123.52,44.97z M120.34,44.65c0.18-0.33,0.42-0.59,0.74-0.77
		c0.31-0.18,0.66-0.27,1.04-0.27c0.38,0,0.7,0.08,0.98,0.24c0.28,0.16,0.48,0.37,0.62,0.61v-0.79h0.72v4.31h-0.72v-0.8
		c-0.14,0.25-0.35,0.46-0.63,0.62c-0.28,0.17-0.61,0.25-0.98,0.25c-0.38,0-0.73-0.09-1.04-0.28c-0.31-0.19-0.55-0.45-0.73-0.79
		c-0.18-0.34-0.27-0.73-0.27-1.16C120.07,45.37,120.16,44.99,120.34,44.65z"/>
	<path class="st2" d="M129.48,44.96c-0.13-0.24-0.31-0.42-0.53-0.55c-0.22-0.13-0.47-0.19-0.73-0.19c-0.26,0-0.5,0.06-0.73,0.19
		c-0.22,0.13-0.4,0.31-0.53,0.56c-0.13,0.24-0.2,0.53-0.2,0.84c0,0.33,0.07,0.61,0.2,0.85c0.13,0.24,0.31,0.43,0.53,0.56
		c0.22,0.13,0.46,0.19,0.73,0.19c0.27,0,0.51-0.06,0.73-0.19c0.22-0.13,0.4-0.31,0.53-0.56c0.13-0.24,0.2-0.53,0.2-0.86
		C129.68,45.49,129.62,45.2,129.48,44.96L129.48,44.96z M127.4,43.85c0.28-0.16,0.61-0.24,0.97-0.24c0.39,0,0.74,0.09,1.05,0.27
		c0.31,0.18,0.55,0.44,0.73,0.77c0.18,0.33,0.27,0.72,0.27,1.16c0,0.44-0.09,0.82-0.27,1.16c-0.18,0.34-0.42,0.61-0.74,0.79
		c-0.31,0.19-0.66,0.28-1.04,0.28c-0.37,0-0.7-0.08-0.98-0.24c-0.28-0.16-0.49-0.37-0.63-0.62v0.79h-0.72v-5.82h0.72v2.31
		C126.9,44.22,127.12,44.01,127.4,43.85z"/>
	<path class="st2" d="M132.46,47.98h-0.72v-4.31h0.72V47.98L132.46,47.98z M131.77,42.83c-0.09-0.09-0.14-0.21-0.14-0.35
		c0-0.14,0.05-0.25,0.14-0.35c0.09-0.09,0.21-0.14,0.35-0.14c0.13,0,0.24,0.05,0.33,0.14c0.09,0.09,0.14,0.21,0.14,0.35
		c0,0.14-0.05,0.25-0.14,0.35c-0.09,0.09-0.2,0.14-0.33,0.14C131.98,42.97,131.87,42.93,131.77,42.83z"/>
	<rect x="134.07" y="42.17" class="st2" width="0.72" height="5.82"/>
	<path class="st2" d="M137.12,47.98h-0.72v-4.31h0.72V47.98L137.12,47.98z M136.42,42.83c-0.09-0.09-0.14-0.21-0.14-0.35
		c0-0.14,0.05-0.25,0.14-0.35c0.09-0.09,0.21-0.14,0.35-0.14c0.13,0,0.24,0.05,0.33,0.14c0.09,0.09,0.14,0.21,0.14,0.35
		c0,0.14-0.05,0.25-0.14,0.35c-0.09,0.09-0.2,0.14-0.33,0.14C136.63,42.97,136.52,42.93,136.42,42.83z"/>
	<path class="st2" d="M139.6,44.26v2.54c0,0.21,0.04,0.36,0.13,0.44c0.09,0.09,0.24,0.13,0.46,0.13h0.53v0.61h-0.64
		c-0.4,0-0.7-0.09-0.9-0.27c-0.2-0.18-0.3-0.48-0.3-0.9v-2.54h-0.56v-0.59h0.56v-1.08h0.72v1.08h1.12v0.59H139.6z"/>
	<polygon class="st2" points="145.69,43.67 143.1,50.01 142.36,50.01 143.21,47.93 141.47,43.67 142.26,43.67 143.61,47.16 
		144.95,43.67 	"/>
	<path class="st2" d="M146.68,47.89c-0.09-0.09-0.14-0.21-0.14-0.35c0-0.14,0.05-0.25,0.14-0.35c0.09-0.09,0.21-0.14,0.35-0.14
		c0.13,0,0.24,0.05,0.33,0.14c0.09,0.09,0.14,0.21,0.14,0.35c0,0.14-0.05,0.25-0.14,0.35c-0.09,0.09-0.2,0.14-0.33,0.14
		C146.89,48.03,146.77,47.98,146.68,47.89z"/>
	<polygon class="st2" points="133.3,16.73 133.3,17.21 132.35,17.21 132.35,20.33 131.76,20.33 131.76,17.21 130.79,17.21 
		130.79,16.73 	"/>
	<polygon class="st2" points="137.69,16.73 137.69,20.33 137.1,20.33 137.1,17.86 136,20.33 135.59,20.33 134.49,17.86 
		134.49,20.33 133.9,20.33 133.9,16.73 134.54,16.73 135.8,19.55 137.06,16.73 	"/>
</g>
</svg>
